<?xml version="1.0" encoding="UTF-8" standalone="no"?>
<svg
   xmlns:dc="http://purl.org/dc/elements/1.1/"
   xmlns:cc="http://creativecommons.org/ns#"
   xmlns:rdf="http://www.w3.org/1999/02/22-rdf-syntax-ns#"
   xmlns:svg="http://www.w3.org/2000/svg"
   xmlns="http://www.w3.org/2000/svg"
   xmlns:sodipodi="http://sodipodi.sourceforge.net/DTD/sodipodi-0.dtd"
   xmlns:inkscape="http://www.inkscape.org/namespaces/inkscape"
   width="600"
   height="200"
   viewBox="0 0 169.33334 56.444444"
   version="1.1"
   id="svg8"
   inkscape:version="0.92.3 (2405546, 2018-03-11)"
   sodipodi:docname="seaUrchin3.svg">
  <sodipodi:namedview
     pagecolor="#ffffff"
     bordercolor="#666666"
     borderopacity="1"
     objecttolerance="10"
     gridtolerance="10"
     guidetolerance="10"
     inkscape:pageopacity="0"
     inkscape:pageshadow="2"
     inkscape:window-width="1426"
     inkscape:window-height="759"
     id="namedview17"
     showgrid="false"
     inkscape:zoom="0.99333333"
     inkscape:cx="370.4698"
     inkscape:cy="249.23763"
     inkscape:window-x="362"
     inkscape:window-y="57"
     inkscape:window-maximized="0"
     inkscape:current-layer="svg8" />
  <defs
     id="defs2" />
  <metadata
     id="metadata5">
    <rdf:RDF>
      <cc:Work
         rdf:about="">
        <dc:format>image/svg+xml</dc:format>
        <dc:type
           rdf:resource="http://purl.org/dc/dcmitype/StillImage" />
        <dc:title />
      </cc:Work>
    </rdf:RDF>
  </metadata>
  <g
     style="font-style:italic;font-variant:normal;font-weight:600;font-stretch:normal;font-size:25.40000153px;line-height:100%;font-family:FreeSans;-inkscape-font-specification:'FreeSans, Semi-Bold Italic';text-align:start;letter-spacing:0px;word-spacing:0px;writing-mode:lr-tb;text-anchor:start;fill:#552200;fill-opacity:1;stroke:none;stroke-width:1px;stroke-linecap:butt;stroke-linejoin:miter;stroke-opacity:1"
     id="text4141"
     transform="translate(1.9888143,-0.28411632)">
    <g
       aria-label="GAUGE
WATCHER"
       style="font-style:normal;font-weight:normal;font-size:3.76296306px;line-height:1.25;font-family:sans-serif;letter-spacing:0px;word-spacing:0px;fill:#000000;fill-opacity:1;stroke:none;stroke-width:0.28222224px"
       id="text876">
      <path
         d="m 66.127277,27.678633 q -2.799645,0 -4.380089,-1.603022 -1.580445,-1.603023 -1.580445,-4.6736 0,-2.054578 0.587022,-3.905956 0.6096,-1.873955 1.806223,-3.296355 1.196622,-1.444978 2.957689,-2.280356 1.761066,-0.835378 4.086577,-0.835378 2.415823,0 4.515556,1.083733 l -1.264356,2.777067 q -0.8128,-0.451555 -1.6256,-0.699911 -0.8128,-0.270933 -1.783644,-0.270933 -1.490133,0 -2.596445,0.632178 -1.083733,0.632177 -1.806222,1.693333 -0.722489,1.038578 -1.083733,2.302933 -0.361245,1.264356 -0.361245,2.528711 0,1.806223 0.767645,2.754489 0.767644,0.925689 2.483555,0.925689 0.564445,0 0.970845,-0.06773 0.428978,-0.09031 0.903111,-0.2032 l 0.722489,-3.296356 h -2.935111 l 0.6096,-2.8448 h 6.208889 L 71.545943,26.7981 q -1.106311,0.383822 -2.348089,0.632177 -1.2192,0.248356 -3.070577,0.248356 z"
         style="font-style:italic;font-variant:normal;font-weight:bold;font-stretch:normal;font-size:22.57777786px;font-family:'Noto Sans';-inkscape-font-specification:'Noto Sans, Bold Italic';font-variant-ligatures:normal;font-variant-caps:normal;font-variant-numeric:normal;font-feature-settings:normal;text-align:start;writing-mode:lr-tb;text-anchor:start;fill:#1a1a1a;stroke-width:0.28222224px"
         id="path886" />
      <path
         d="m 73.023729,27.452855 8.444089,-16.120533 h 4.109156 l 1.6256,16.120533 h -3.273778 l -0.270933,-3.838222 h -5.215467 l -1.896533,3.838222 z m 6.795911,-6.7056 h 3.680178 l -0.293511,-4.154311 q -0.04515,-0.654756 -0.09031,-1.332089 -0.04515,-0.677333 -0.02258,-1.377244 h -0.04515 q -0.225778,0.6096 -0.496711,1.2192 -0.270934,0.587022 -0.6096,1.286933 z"
         style="font-style:italic;font-variant:normal;font-weight:bold;font-stretch:normal;font-size:22.57777786px;font-family:'Noto Sans';-inkscape-font-specification:'Noto Sans, Bold Italic';font-variant-ligatures:normal;font-variant-caps:normal;font-variant-numeric:normal;font-feature-settings:normal;text-align:start;writing-mode:lr-tb;text-anchor:start;fill:#1a1a1a;stroke-width:0.28222224px"
         id="path888" />
      <path
         d="m 95.238146,27.678633 q -2.506133,0 -3.815644,-1.241778 -1.286934,-1.241778 -1.286934,-3.296355 0,-0.361245 0.02258,-0.790223 0.04516,-0.451555 0.135467,-0.835377 l 2.167466,-10.182578 h 3.364089 l -2.144889,10.137422 q -0.180622,0.835378 -0.180622,1.377244 0,1.964267 2.077156,1.964267 1.467555,0 2.190044,-0.835378 0.745067,-0.857955 1.106311,-2.528711 l 2.144892,-10.114844 h 3.36409 l -2.21263,10.430933 q -0.36124,1.715911 -1.17404,3.048 -0.8128,1.332089 -2.235201,2.099733 -1.399822,0.767645 -3.522133,0.767645 z"
         style="font-style:italic;font-variant:normal;font-weight:bold;font-stretch:normal;font-size:22.57777786px;font-family:'Noto Sans';-inkscape-font-specification:'Noto Sans, Bold Italic';font-variant-ligatures:normal;font-variant-caps:normal;font-variant-numeric:normal;font-feature-settings:normal;text-align:start;writing-mode:lr-tb;text-anchor:start;fill:#1a1a1a;stroke-width:0.28222224px"
         id="path890" />
      <path
         d="m 111.50332,27.678633 q -2.79965,0 -4.38009,-1.603022 -1.58045,-1.603023 -1.58045,-4.6736 0,-2.054578 0.58703,-3.905956 0.6096,-1.873955 1.80622,-3.296355 1.19662,-1.444978 2.95769,-2.280356 1.76106,-0.835378 4.08658,-0.835378 2.41582,0 4.51555,1.083733 l -1.26435,2.777067 q -0.8128,-0.451555 -1.6256,-0.699911 -0.8128,-0.270933 -1.78365,-0.270933 -1.49013,0 -2.59644,0.632178 -1.08374,0.632177 -1.80623,1.693333 -0.72248,1.038578 -1.08373,2.302933 -0.36124,1.264356 -0.36124,2.528711 0,1.806223 0.76764,2.754489 0.76765,0.925689 2.48356,0.925689 0.56444,0 0.97084,-0.06773 0.42898,-0.09031 0.90311,-0.2032 l 0.72249,-3.296356 h -2.93511 l 0.6096,-2.8448 h 6.20889 l -1.78365,8.398934 q -1.10631,0.383822 -2.34808,0.632177 -1.2192,0.248356 -3.07058,0.248356 z"
         style="font-style:italic;font-variant:normal;font-weight:bold;font-stretch:normal;font-size:22.57777786px;font-family:'Noto Sans';-inkscape-font-specification:'Noto Sans, Bold Italic';font-variant-ligatures:normal;font-variant-caps:normal;font-variant-numeric:normal;font-feature-settings:normal;text-align:start;writing-mode:lr-tb;text-anchor:start;fill:#1a1a1a;stroke-width:0.28222224px"
         id="path892" />
      <path
         d="m 120.34146,27.452855 3.40924,-16.120533 h 9.00854 l -0.58703,2.799644 h -5.64444 l -0.74507,3.544711 h 5.26063 l -0.6096,2.799645 h -5.26063 l -0.88053,4.154311 h 5.64444 l -0.58702,2.822222 z"
         style="font-style:italic;font-variant:normal;font-weight:bold;font-stretch:normal;font-size:22.57777786px;font-family:'Noto Sans';-inkscape-font-specification:'Noto Sans, Bold Italic';font-variant-ligatures:normal;font-variant-caps:normal;font-variant-numeric:normal;font-feature-settings:normal;text-align:start;writing-mode:lr-tb;text-anchor:start;fill:#1a1a1a;stroke-width:0.28222224px"
         id="path894" />
      <path
         d="M 61.340788,46.595078 60.844077,30.474545 h 3.160888 l 0.06773,8.805333 q 0,0.857956 -0.04516,1.896534 -0.02258,1.038578 -0.112889,1.919111 h 0.09031 q 0.316089,-0.880533 0.699912,-1.873956 0.383822,-1.016 0.677333,-1.715911 l 4.064,-9.031111 h 2.980267 l 0.225777,9.031111 q 0.02258,0.383822 0,0.993422 0,0.6096 -0.02258,1.309512 -0.02258,0.677333 -0.06773,1.286933 h 0.09031 q 0.293512,-0.925689 0.699912,-1.986845 0.4064,-1.083733 0.722488,-1.851377 l 3.635023,-8.782756 h 3.409244 l -7.134578,16.120533 h -3.815644 l -0.180622,-7.337777 q -0.02258,-0.970845 -0.04516,-1.6256 0,-0.654756 0,-1.174045 0,-0.519289 0.02258,-1.083733 h -0.09031 q -0.587023,1.806222 -1.241778,3.296355 l -3.567289,7.9248 z"
         style="font-style:italic;font-variant:normal;font-weight:bold;font-stretch:normal;font-size:22.57777786px;font-family:'Noto Sans';-inkscape-font-specification:'Noto Sans, Bold Italic';font-variant-ligatures:normal;font-variant-caps:normal;font-variant-numeric:normal;font-feature-settings:normal;text-align:start;writing-mode:lr-tb;text-anchor:start;fill:#1a1a1a;stroke-width:0.28222224px"
         id="path896" />
      <path
         d="m 77.433452,46.595078 8.444089,-16.120533 h 4.109155 l 1.6256,16.120533 h -3.273778 l -0.270933,-3.838222 h -5.215467 l -1.896533,3.838222 z m 6.795911,-6.7056 h 3.680178 L 87.61603,35.735167 q -0.04516,-0.654755 -0.09031,-1.332089 -0.04515,-0.677333 -0.02258,-1.377244 h -0.04516 q -0.225778,0.6096 -0.496711,1.2192 -0.270933,0.587022 -0.6096,1.286933 z"
         style="font-style:italic;font-variant:normal;font-weight:bold;font-stretch:normal;font-size:22.57777786px;font-family:'Noto Sans';-inkscape-font-specification:'Noto Sans, Bold Italic';font-variant-ligatures:normal;font-variant-caps:normal;font-variant-numeric:normal;font-feature-settings:normal;text-align:start;writing-mode:lr-tb;text-anchor:start;fill:#1a1a1a;stroke-width:0.28222224px"
         id="path898" />
      <path
         d="m 94.776008,46.595078 2.799644,-13.275733 h -3.883378 l 0.6096,-2.8448 h 11.130846 l -0.6096,2.8448 h -3.88338 l -2.799643,13.275733 z"
         style="font-style:italic;font-variant:normal;font-weight:bold;font-stretch:normal;font-size:22.57777786px;font-family:'Noto Sans';-inkscape-font-specification:'Noto Sans, Bold Italic';font-variant-ligatures:normal;font-variant-caps:normal;font-variant-numeric:normal;font-feature-settings:normal;text-align:start;writing-mode:lr-tb;text-anchor:start;fill:#1a1a1a;stroke-width:0.28222224px"
         id="path900" />
      <path
         d="m 110.66441,46.820856 q -2.93511,0 -4.42524,-1.715911 -1.49014,-1.715911 -1.49014,-4.605867 0,-1.4224 0.31609,-2.867377 0.33867,-1.467556 0.99343,-2.777067 0.67733,-1.332089 1.69333,-2.370667 1.016,-1.061155 2.41582,-1.648177 1.39982,-0.6096 3.20605,-0.6096 1.53528,0 2.59644,0.293511 1.08373,0.270933 2.14489,0.857955 l -1.30951,2.754489 q -0.76765,-0.451555 -1.60302,-0.745067 -0.8128,-0.316088 -1.8288,-0.316088 -1.35467,0 -2.34809,0.677333 -0.97085,0.677333 -1.60303,1.761067 -0.63217,1.083733 -0.94826,2.370666 -0.29351,1.264356 -0.29351,2.4384 0,1.8288 0.74506,2.731911 0.76765,0.903111 2.41583,0.903111 0.90311,0 1.85137,-0.225777 0.94827,-0.248356 1.87396,-0.632178 v 2.867378 q -0.67733,0.270933 -1.80622,0.564444 -1.12889,0.293511 -2.59645,0.293511 z"
         style="font-style:italic;font-variant:normal;font-weight:bold;font-stretch:normal;font-size:22.57777786px;font-family:'Noto Sans';-inkscape-font-specification:'Noto Sans, Bold Italic';font-variant-ligatures:normal;font-variant-caps:normal;font-variant-numeric:normal;font-feature-settings:normal;text-align:start;writing-mode:lr-tb;text-anchor:start;fill:#1a1a1a;stroke-width:0.28222224px"
         id="path902" />
      <path
         d="m 117.78382,46.595078 3.40925,-16.120533 h 3.36409 l -1.33209,6.321778 h 5.19289 l 1.33208,-6.321778 h 3.36409 l -3.40924,16.120533 h -3.36409 l 1.46756,-6.953955 h -5.19289 l -1.46756,6.953955 z"
         style="font-style:italic;font-variant:normal;font-weight:bold;font-stretch:normal;font-size:22.57777786px;font-family:'Noto Sans';-inkscape-font-specification:'Noto Sans, Bold Italic';font-variant-ligatures:normal;font-variant-caps:normal;font-variant-numeric:normal;font-feature-settings:normal;text-align:start;writing-mode:lr-tb;text-anchor:start;fill:#1a1a1a;stroke-width:0.28222224px"
         id="path904" />
      <path
         d="m 133.57062,46.595078 3.40925,-16.120533 h 9.00853 l -0.58702,2.799645 h -5.64445 l -0.74506,3.544711 h 5.26062 l -0.6096,2.799644 h -5.26062 l -0.88054,4.154311 h 5.64445 l -0.58702,2.822222 z"
         style="font-style:italic;font-variant:normal;font-weight:bold;font-stretch:normal;font-size:22.57777786px;font-family:'Noto Sans';-inkscape-font-specification:'Noto Sans, Bold Italic';font-variant-ligatures:normal;font-variant-caps:normal;font-variant-numeric:normal;font-feature-settings:normal;text-align:start;writing-mode:lr-tb;text-anchor:start;fill:#1a1a1a;stroke-width:0.28222224px"
         id="path906" />
      <path
         d="m 145.82966,46.595078 3.40924,-16.120533 h 3.95111 q 2.41582,0 3.81565,1.038578 1.4224,1.038578 1.4224,3.386667 0,1.919111 -1.016,3.138311 -1.016,1.196622 -2.52872,1.715911 l 2.86738,6.841066 h -3.6576 l -2.28035,-6.186311 h -1.30951 l -1.30952,6.186311 z m 5.26062,-8.963377 h 0.85795 q 1.44498,0 2.2352,-0.632178 0.8128,-0.632178 0.8128,-1.919111 0,-1.806222 -2.16746,-1.806222 h -0.8128 z"
         style="font-style:italic;font-variant:normal;font-weight:bold;font-stretch:normal;font-size:22.57777786px;font-family:'Noto Sans';-inkscape-font-specification:'Noto Sans, Bold Italic';font-variant-ligatures:normal;font-variant-caps:normal;font-variant-numeric:normal;font-feature-settings:normal;text-align:start;writing-mode:lr-tb;text-anchor:start;fill:#1a1a1a;stroke-width:0.28222224px"
         id="path908" />
    </g>
  </g>
  <path
     style="fill:none;stroke:#00ff00;stroke-width:1.86266673;stroke-linecap:butt;stroke-linejoin:miter;stroke-miterlimit:4;stroke-dasharray:none;stroke-opacity:1"
     d="m 11.080537,29.737509 c 7.955258,-16.194634 31.536914,-16.19463 36.935124,0.852348"
     id="path42"
     inkscape:connector-curvature="0"
     sodipodi:nodetypes="cc" />
  <path
     style="fill:none;stroke:#000000;stroke-width:0.56444442;stroke-linecap:butt;stroke-linejoin:miter;stroke-miterlimit:4;stroke-dasharray:none;stroke-opacity:1"
     d="M 27.562154,40.531906 38.636953,16.101947"
     id="path849"
     inkscape:connector-curvature="0"
     sodipodi:nodetypes="cc" />
  <path
     style="fill:none;stroke:#ff0000;stroke-width:3.95111108;stroke-linecap:butt;stroke-linejoin:miter;stroke-miterlimit:4;stroke-dasharray:none;stroke-opacity:1"
     d="m 40.514294,20.453227 c 4.985136,3.074954 6.831551,6.207055 7.501367,10.13663"
     id="path42-3"
     inkscape:connector-curvature="0"
     sodipodi:nodetypes="cc" />
  <rect
     style="fill:none;stroke:#333333;stroke-width:3.95111132;stroke-miterlimit:4;stroke-dasharray:none"
     id="rect866"
     width="47.731544"
     height="36.36689"
     x="6.8187938"
     y="10.4176"
     ry="5.1140943" />
</svg>
